# xmcd CD database file
#
# Track frame offsets:
#	150
#	24720
#	55050
#	87738
#	103842
#	133167
#	167206
#	191063
#	226895
#	257318
#
# Disc length: 3782 seconds
#
# Revision: 0
# Processed by: cddbd v1.5.2PL0 Copyright (c) Steve Scherf et al.
# Submitted via: CDex 1.51
#
DISCID=880ec40a
DTITLE=THE ARON BURTON CHICAGO BLUES BAND - The Cologne sessions
DYEAR=2001
DGENRE=Blues
TTITLE0=BLOODY TEARS
TTITLE1=TWO WAY STREET
TTITLE2=WALKING THE DOG
TTITLE3=THE RIVER'S INVITATION
TTITLE4=THE RIVER'S INVITATION
TTITLE5=FLIP, FLOP AND FLY
TTITLE6=STRAIGHTEN IT OUT
TTITLE7=BEEN DOWN
TTITLE8=HONEY HUSH
TTITLE9=MAN DOWNSTAIRS
EXTD=YEAR: 2001
EXTT0=
EXTT1=
EXTT2=
EXTT3=
EXTT4=
EXTT5=
EXTT6=
EXTT7=
EXTT8=
EXTT9=
PLAYORDER=
